<?xml version="1.0" encoding="UTF-8"?>
<!-- Created with Inkscape (http://www.inkscape.org/) -->
<svg width="3.0498mm" height="4.899mm" version="1.1" viewBox="0 0 3.0498 4.899" xmlns="http://www.w3.org/2000/svg" xmlns:cc="http://creativecommons.org/ns#" xmlns:dc="http://purl.org/dc/elements/1.1/" xmlns:rdf="http://www.w3.org/1999/02/22-rdf-syntax-ns#">
 <metadata>
  <rdf:RDF>
   <cc:Work rdf:about="">
    <dc:format>image/svg+xml</dc:format>
    <dc:type rdf:resource="http://purl.org/dc/dcmitype/StillImage"/>
    <dc:title/>
   </cc:Work>
  </rdf:RDF>
 </metadata>
 <g transform="translate(-73.143 -183.64)">
  <text x="67.787666" y="172.04933" fill="#000000" fill-opacity="0" font-family="sans-serif" font-size="10.583px" letter-spacing="0px" stroke-width=".26458" word-spacing="0px" style="line-height:1.25" xml:space="preserve"><tspan x="67.787666" y="181.4131" fill-opacity="0" stroke-width=".26458"/></text>
  <g transform="translate(4.3987 12.832)">
   <g>
    <path d="m69.425 172.9-0.6787-2.0847h0.93552l0.69149 2.088-1.0276 0.12706z" fill="#606060"/>
    <path d="m71.107 172.89 0.68686-2.0727h-0.93055l-0.68794 2.076 0.98892 0.17257z" fill="#606060"/>
    <g>
     <g stroke-width="0">
      <path d="m71.362 170.81-0.73339 2.1015 0.22362 0.0174 0.72099-2.1188z" fill="#fff"/>
      <path d="m69.433 170.82 0.72394 2.0748-0.23806 2e-3 -0.71135-2.0768z" fill="#fff"/>
      <circle cx="70.268" cy="174.19" r="1.5237" fill="#606060"/>
     </g>
     <path transform="rotate(-5.2901 70.303 174.75)" d="m70.62 174.74-0.34397-0.22968-0.38421 0.15315 0.11215-0.39812-0.26438-0.31808 0.41328-0.0164 0.22081-0.34973 0.14328 0.388 0.40085 0.10193-0.32473 0.25616z" fill="#fff" stroke="#fff" stroke-width=".14711"/>
    </g>
   </g>
   <circle cx="70.259" cy="174.18" r="1.1162" fill="none" stroke="#fff" stroke-width=".14711"/>
  </g>
 </g>
</svg>
