<?xml version="1.0" encoding="UTF-8"?>
<!-- Created with Inkscape (http://www.inkscape.org/) -->
<svg width="14.908mm" height="2.6369mm" version="1.1" viewBox="0 0 14.908 2.6369" xmlns="http://www.w3.org/2000/svg" xmlns:cc="http://creativecommons.org/ns#" xmlns:dc="http://purl.org/dc/elements/1.1/" xmlns:rdf="http://www.w3.org/1999/02/22-rdf-syntax-ns#">
 <metadata>
  <rdf:RDF>
   <cc:Work rdf:about="">
    <dc:format>image/svg+xml</dc:format>
    <dc:type rdf:resource="http://purl.org/dc/dcmitype/StillImage"/>
    <dc:title/>
   </cc:Work>
  </rdf:RDF>
 </metadata>
 <g transform="translate(-77.366 -179.17)">
  <text x="67.787666" y="172.04933" fill="#000000" fill-opacity="0" font-family="sans-serif" font-size="10.583px" letter-spacing="0px" stroke-width=".26458" word-spacing="0px" style="line-height:1.25" xml:space="preserve"><tspan x="67.787666" y="181.4131" fill-opacity="0" stroke-width=".26458"/></text>
  <g stroke-width="0">
   <path transform="matrix(1.007 -.0068644 .0068688 1.0079 -9.0378 -.82692)" d="m86.793 181.8-0.84727-0.4513-0.8521 0.44211 0.16739-0.94526-0.68378-0.67378 0.95072-0.1329 0.4295-0.85853 0.42019 0.86313 0.94923 0.14318-0.69104 0.66634z"/>
   <path transform="matrix(1.007 -.0068644 .0068688 1.0079 -6.0033 -.82692)" d="m86.793 181.8-0.84727-0.4513-0.8521 0.44211 0.16739-0.94526-0.68378-0.67378 0.95072-0.1329 0.4295-0.85853 0.42019 0.86313 0.94923 0.14318-0.69104 0.66634z"/>
   <path transform="matrix(1.007 -.0068644 .0068688 1.0079 -2.9523 -.82692)" d="m86.793 181.8-0.84727-0.4513-0.8521 0.44211 0.16739-0.94526-0.68378-0.67378 0.95072-0.1329 0.4295-0.85853 0.42019 0.86313 0.94923 0.14318-0.69104 0.66634z"/>
   <path transform="matrix(1.007 -.0068644 .0068688 1.0079 .073829 -.82692)" d="m86.793 181.8-0.84727-0.4513-0.8521 0.44211 0.16739-0.94526-0.68378-0.67378 0.95072-0.1329 0.4295-0.85853 0.42019 0.86313 0.94923 0.14318-0.69104 0.66634z"/>
   <path transform="matrix(1.007 -.0068644 .0068688 1.0079 3.101 -.82692)" d="m86.793 181.8-0.84727-0.4513-0.8521 0.44211 0.16739-0.94526-0.68378-0.67378 0.95072-0.1329 0.4295-0.85853 0.42019 0.86313 0.94923 0.14318-0.69104 0.66634z"/>
  </g>
 </g>
</svg>
