<?xml version="1.0" encoding="UTF-8"?>
<!-- Created with Inkscape (http://www.inkscape.org/) -->
<svg width="5.2222mm" height="4.4372mm" version="1.1" viewBox="0 0 5.2222 4.4372" xmlns="http://www.w3.org/2000/svg" xmlns:cc="http://creativecommons.org/ns#" xmlns:dc="http://purl.org/dc/elements/1.1/" xmlns:rdf="http://www.w3.org/1999/02/22-rdf-syntax-ns#">
 <metadata>
  <rdf:RDF>
   <cc:Work rdf:about="">
    <dc:format>image/svg+xml</dc:format>
    <dc:type rdf:resource="http://purl.org/dc/dcmitype/StillImage"/>
    <dc:title/>
   </cc:Work>
  </rdf:RDF>
 </metadata>
 <g transform="translate(-4.362 -19.861)">
  <path d="m7.9458 22.567c-1e-7 0.57116-0.27582 1.0554-0.69254 1.3445-0.23961 0.1662-0.52581 0.26785-0.83295 0.28437-0.73112 0.039314-1.3732-0.6755-1.5255-1.6288-0.14191-0.88832 0.68298-1.6288 1.5255-1.6288 0.8425 0 1.5255 0.72926 1.5255 1.6288z" fill="#fff" stroke="#606060" stroke-width=".2"/>
  <g fill="#606060">
   <path d="m5.1274 22.537c-0.11496 0.453 0.021354 0.85981-0.72284 1.0962 0 0 0.19487-0.27229 0.155-0.52223-0.03241-0.20319-0.014355-0.05702-0.043718-0.29155-0.00521-0.04164-0.15648 0.11797-0.15382 0.07565 0.00569-0.09027 0.1888-0.49681 0.18631-0.89192-0.00193-0.30565 0.115-0.65062 0.23685-0.88584 0.23103-0.44599 0.53634-0.61187 0.90347-0.74351 0.39702-0.14236 0.85155-0.16487 1.273-0.08133 0.015259 3e-3 0.1554-0.22115 0.16346-0.23441 0.040948-0.0673-0.044799 0.27526-0.051981 0.29489-0.028232 0.07715 0.11743-5e-3 0.19408 0.02091 0.36479 0.12344 0.71683 0.37313 0.9179 0.70158 0.29478 0.48152 0.45958 1.0973 0.30402 1.6663-0.12244 0.44782 0.021926 0.9946 0.021926 0.9946-0.80156-0.75111 0.18496-0.6816-0.4577-0.23002-0.34313-0.30166-0.18181-0.531-0.29504-0.99259 0 0-0.14805-0.77584-0.66071-0.99615-0.051561-0.02216-0.7516 0.28898-0.80137 0.2727-0.056636-0.01853 0.097845-0.232 0.042432-0.23347-0.025066-6.65e-4 -0.1267 0.08295-0.19443 0.11638-0.16772 0.08279-0.49193 0.19685-0.52159 0.20692-0.043817 0.01488 0.074953-0.14229 0.061855-0.13933-0.55691 0.12574-0.55713 0.79634-0.55713 0.79634z"/>
   <g stroke-width="0">
    <path d="m6.9523 20.469s0.056321-0.10804 0.18922-0.29727c0.085158-0.12126 0.35666-0.26714 0.62286-0.30606 0.17241-0.02521 0.53401 0.04875 0.58193 0.05522 0.067289 0.0091-0.2355 0.03785-0.17184 0.05663 0.64572 0.19054 1.0003 0.84058 1.0982 1.4427 0.10803 0.66432 0.018287 0.7997 0.15201 1.1693 0.033797 0.09341 0.15957 0.25169 0.15957 0.25169-0.19075-0.13127-0.30884-0.02637-0.5788-0.4151-0.00989 0.04946-0.066669 0.41804-0.083564 0.34465-0.023386-0.04092-0.076944-0.3666-0.11693-0.54957-0.047483-0.21728-0.060275-0.47214-0.14604-0.65104-0.016121 0.11676-0.00597-0.03547-0.13182-0.21259-0.04144-0.05976-0.11091-0.09849-0.17876-0.12507-0.15064-0.059026-0.48331 0.044886-0.48331 0.044886z"/>
    <path d="m7.7651 22.275-0.5265 0.95391-0.85576 0.21494c-0.12636 0.08489-0.064303 0.14648 0.028933 0.19844l0.95085-0.21915 0.58204-1.0285z"/>
    <path d="m6.6931 23.514c6e-7 0.10503-0.11753 0.19017-0.26252 0.19017s-0.27713-0.05591-0.27713-0.16094c0.026776-0.10076 0.11378-0.20411 0.27713-0.2194 0.21779-0.02039 0.2822 0.08077 0.26252 0.19017z"/>
   </g>
  </g>
 </g>
</svg>
