<?xml version="1.0" encoding="UTF-8"?>
<!-- Created with Inkscape (http://www.inkscape.org/) -->
<svg width="6.2517mm" height="4.2605mm" version="1.1" viewBox="0 0 6.2517 4.2605" xmlns="http://www.w3.org/2000/svg" xmlns:cc="http://creativecommons.org/ns#" xmlns:dc="http://purl.org/dc/elements/1.1/" xmlns:rdf="http://www.w3.org/1999/02/22-rdf-syntax-ns#">
 <metadata>
  <rdf:RDF>
   <cc:Work rdf:about="">
    <dc:format>image/svg+xml</dc:format>
    <dc:type rdf:resource="http://purl.org/dc/dcmitype/StillImage"/>
    <dc:title/>
   </cc:Work>
  </rdf:RDF>
 </metadata>
 <g transform="translate(-77.219 -183.91)">
  <text x="67.787666" y="172.04933" fill="#000000" fill-opacity="0" font-family="sans-serif" font-size="10.583px" letter-spacing="0px" stroke-width=".26458" word-spacing="0px" style="line-height:1.25" xml:space="preserve"><tspan x="67.787666" y="181.4131" fill-opacity="0" stroke-width=".26458"/></text>
  <g>
   <path d="m77.219 184.09c-4e-3 -0.0431 0.02358-0.1801 0.17131-0.18008h3.3649c0.1387 2e-3 0.21009 0.0648 0.20718 0.19543v3.1664c-0.0043 0.16561-0.08953 0.14977-0.15933 0.15552h-3.4353c-0.10855 3e-3 -0.14757-0.0565-0.14871-0.14922z" fill="#606060" stroke-width="0"/>
   <path d="m81.179 185.47v1.9143h2.2916v-1.2491s-0.0053-0.0554-0.01177-0.0823c-0.0055-0.0228-0.02331-0.0667-0.02331-0.0667l-0.53804-0.99012c-0.03143-0.067-0.07903-0.11446-0.16208-0.11854h-1.5564z" fill="#606060"/>
   <g fill="#fff">
    <path d="m78.319 185.85 0.65076-0.10063-0.51658 0.94595 1.382-1.3351-0.66418 0.0805 0.6776-0.79836-0.99459 3e-3c-0.17906 0.4011-0.35763 0.80241-0.53503 1.2043z" stroke-width="0"/>
    <circle cx="78.77" cy="187.45" r=".60453" stroke="#606060" stroke-width=".23105"/>
    <path d="m82.664 185.18c0.02323 0.016 0.05017 0.0681 0.05017 0.0681l0.45499 0.79125s0.02345 0.042 0.03058 0.0647c0.0069 0.022 0.01137 0.0682 0.01137 0.0682v0.0971h-1.0227v-1.1162l0.39066 3e-3s0.06072 7e-3 0.08491 0.0235z" stroke-width="0"/>
    <circle cx="82.067" cy="187.45" r=".60453" stroke="#606060" stroke-width=".23105"/>
   </g>
  </g>
  <g>
   <path d="m77.219 184.09c-4e-3 -0.0431 0.02358-0.1801 0.17131-0.18008h3.3649c0.1387 2e-3 0.21009 0.0648 0.20718 0.19543v3.1664c-0.0043 0.16561-0.08953 0.14977-0.15933 0.15552h-3.4353c-0.10855 3e-3 -0.14757-0.0565-0.14871-0.14922z" fill="#606060" stroke-width="0"/>
   <path d="m81.179 185.47v1.9143h2.2916v-1.2491s-0.0053-0.0554-0.01177-0.0823c-0.0055-0.0228-0.02331-0.0667-0.02331-0.0667l-0.53804-0.99012c-0.03143-0.067-0.07903-0.11446-0.16208-0.11854h-1.5564z" fill="#606060"/>
   <g fill="#fff">
    <path d="m78.319 185.85 0.65076-0.10063-0.51658 0.94595 1.382-1.3351-0.66418 0.0805 0.6776-0.79836-0.99459 3e-3c-0.17906 0.4011-0.35763 0.80241-0.53503 1.2043z" stroke-width="0"/>
    <circle cx="78.77" cy="187.45" r=".60453" stroke="#606060" stroke-width=".23105"/>
    <path d="m82.664 185.18c0.02323 0.016 0.05017 0.0681 0.05017 0.0681l0.45499 0.79125s0.02345 0.042 0.03058 0.0647c0.0069 0.022 0.01137 0.0682 0.01137 0.0682v0.0971h-1.0227v-1.1162l0.39066 3e-3s0.06072 7e-3 0.08491 0.0235z" stroke-width="0"/>
    <circle cx="82.067" cy="187.45" r=".60453" stroke="#606060" stroke-width=".23105"/>
   </g>
  </g>
 </g>
</svg>
